<?xml version="1.0" encoding="UTF-8"?>
<!-- Generator: Adobe Illustrator 26.5.0, SVG Export Plug-In . SVG Version: 6.00 Build 0)  -->
<svg version="1.1" id="Layer_1" xmlns="http://www.w3.org/2000/svg" xmlns:xlink="http://www.w3.org/1999/xlink" x="0px" y="0px" width="222px" height="60.4px" viewBox="0 0 222 60.4" style="enable-background:new 0 0 222 60.4;" xml:space="preserve">
<style type="text/css">
	.st0{fill:#231F20;}
</style>
<g>
	<polyline class="st0" points="145.5,12.6 156.6,34.9 165.5,4.9 174.1,0.7 160.6,47.7 154,47.7 143,26.2 134.8,53.6 125.6,59.7    139.2,12.6 145.5,12.6  "/>
	<path class="st0" d="M128.4,14.7c-2.5-2-6-2.5-10-2.5c-1.8,0.1-3.6,0.3-5.3,0.6c-3.5,0.8-6.8,2.3-9.7,4.5   c-4.2,3.1-7.1,7.6-8.6,13.3c-0.6,2.1-0.8,4.1-0.8,5.9l0,0.6c0.1,2.5,0.9,4.5,2.2,6.2c2.6,3.3,6.8,4.9,12.6,4.9   c1.9,0,3.7-0.2,5.5-0.6c3.5-0.8,6.7-2.3,9.6-4.5c4.1-3.2,6.9-7.4,8.3-12.6C133.7,24.8,133.7,18.9,128.4,14.7z M123.2,30.3   c-1.6,4.6-3.4,6.8-5.2,8.7c-1.1,1.3-2.5,2.2-3.9,2.7c-1.3,0.5-2.7,0.7-4.2,0.7c-7.5,0-7.3-6.7-5.9-12.1c1.3-4.8,4.6-9.8,9.3-11.6   c1.1-0.5,2.5-0.8,3.9-0.8C124.8,17.9,125.1,24.8,123.2,30.3z"/>
	<path class="st0" d="M73.7,47.7L82,18.8h-9.5l-5.6,19.4c-3,9.2-10.5,9.6-16.9,9.5c-6.7-0.1-12.3-2.6-11.8-8.9c0-1.4,0.3-2.2,1.1-5   l6.1-21.2h8.5l-6.9,24.1c-1.1,4.3,1.3,5.3,4.9,5.5c3.9,0.2,6.4-1.5,7.6-4.9l7-24.7h34.9l-1.8,6.2h-9.1l-8.3,28.9H73.7z"/>
	<path class="st0" d="M19.7,33.6l9.7-14.9l-2,14.9L19.7,33.6z M26.5,39.8l-0.9,7.9H34l4.9-35.1H26.1L0,47.7h9.1l6.1-7.9L26.5,39.8z"/>
	<polygon class="st0" points="213.4,40.6 213.4,41.5 212.6,41.5 212.6,42.7 213.4,42.7 213.4,44 213.1,43.6 212.6,43.6 212.6,45.7    211.7,45.7 211.7,40.6  "/>
	<path class="st0" d="M210.1,43.2c0-2,1.4-3.6,3.3-3.6v-0.9c-2.3,0-4.4,1.8-4.4,4.5c0,2.7,2.1,4.5,4.4,4.5v-0.9   C211.5,46.7,210.1,45.2,210.1,43.2z"/>
	<path class="st0" d="M213.4,44v-1.3c0.6,0,1-0.1,1-0.6c0-0.6-0.4-0.6-1-0.6v-0.9h0.2c1.2,0,1.8,0.4,1.8,1.5c0,0.9-0.6,1.4-1.3,1.4   l1.3,2.1h-1L213.4,44z"/>
	<path class="st0" d="M213.4,39.6c1.8,0,3.3,1.6,3.3,3.6c0,2-1.4,3.6-3.3,3.6v0.9c2.3,0,4.4-1.8,4.4-4.5c0-2.7-2.1-4.5-4.4-4.5V39.6   z"/>
	<polygon class="st0" points="193,47.7 201.4,18.8 182.1,18.8 179.4,28.2 190.5,28.2 188.9,33.6 177.8,33.6 175.5,41.4 186.7,41.4    184.8,47.7 165.3,47.7 175.4,12.6 221,12.6 219.1,18.8 209.8,18.8 201.5,47.7  "/>
</g>
</svg>